<?xml version="1.0" standalone="no"?>
<!DOCTYPE svg PUBLIC "-//W3C//DTD SVG 20010904//EN"
 "http://www.w3.org/TR/2001/REC-SVG-20010904/DTD/svg10.dtd">
<svg version="1.0" xmlns="http://www.w3.org/2000/svg"
 width="250.000000pt" height="250.000000pt" viewBox="0 0 250.000000 250.000000"
 preserveAspectRatio="xMidYMid meet">
<metadata>
Created by potrace 1.11, written by Peter Selinger 2001-2013
</metadata>
<g transform="translate(0.000000,250.000000) scale(0.100000,-0.100000)"
fill="#000000" stroke="none">
<path d="M1390 2343 c-14 -9 -27 -18 -28 -19 -6 -4 -20 -74 -27 -134 -4 -30
-12 -89 -19 -131 -14 -89 -12 -99 20 -99 23 0 94 -25 94 -33 0 -1 -25 0 -55 3
-30 3 -59 4 -64 1 -11 -8 -31 -135 -31 -200 0 -71 14 -101 45 -101 15 0 24 -4
20 -10 -4 -6 -10 -8 -14 -5 -20 12 -44 -24 -47 -71 -4 -62 9 -110 37 -140 30
-32 55 -30 87 8 56 66 70 151 30 188 -12 11 -26 20 -31 20 -4 0 -2 7 6 15 10
9 26 12 49 8 l35 -5 8 73 c4 41 9 106 11 144 4 74 7 103 25 229 13 90 6 186
-16 220 -16 24 -71 56 -97 56 -7 0 -25 -8 -38 -17z m70 -449 c0 -8 -4 -12 -10
-9 -5 3 -10 10 -10 16 0 5 5 9 10 9 6 0 10 -7 10 -16z"/>
<path d="M919 2303 c-45 -11 -69 -132 -42 -211 9 -28 14 -75 13 -131 -3 -115
-5 -109 38 -113 l37 -3 -30 -18 c-22 -13 -24 -16 -7 -12 27 8 29 -5 3 -27 -20
-17 -21 -48 -6 -139 10 -57 25 -69 75 -58 26 6 47 6 58 -1 9 -5 12 -10 7 -10
-6 0 -31 -17 -55 -39 l-44 -39 25 -62 c28 -71 70 -114 103 -104 37 10 55 40
51 87 -11 115 -18 140 -43 164 -21 19 -22 23 -7 23 16 0 17 7 12 58 -19 169
-23 183 -55 180 -10 -1 -26 0 -36 0 -20 2 -20 2 0 17 17 13 17 14 2 15 -9 0
-20 5 -24 11 -4 7 5 10 27 9 19 -1 39 -2 45 -1 8 1 11 36 8 115 -4 152 -27
242 -68 269 -25 16 -65 26 -87 20z"/>
<path d="M1955 2262 c-16 -2 -40 -13 -51 -24 -28 -25 -72 -122 -82 -180 -16
-87 -10 -100 51 -113 15 -3 27 -10 27 -16 0 -7 -11 -9 -27 -5 -24 5 -23 3 9
-14 20 -11 40 -24 43 -30 10 -17 -15 -11 -44 9 -82 59 -124 26 -158 -124 -2
-11 -6 -38 -8 -61 -4 -37 -1 -42 28 -59 18 -10 35 -23 39 -29 17 -24 6 -27
-26 -7 -18 12 -40 21 -47 21 -8 0 1 -9 20 -21 41 -25 61 -44 61 -58 0 -16 -11
-13 -45 9 -47 31 -63 26 -86 -27 -48 -112 -7 -220 75 -199 47 12 103 138 86
196 -7 26 -6 30 11 30 21 0 42 40 104 195 24 61 26 74 16 100 -7 16 -16 42
-21 57 -8 26 -7 27 21 21 27 -5 30 -2 53 48 13 30 31 86 41 125 16 61 17 75 5
103 -15 37 -53 58 -95 53z"/>
<path d="M2338 1847 c-9 -8 -37 -47 -61 -88 -24 -41 -71 -103 -104 -137 -33
-33 -69 -81 -82 -104 -12 -24 -41 -62 -65 -86 -49 -49 -108 -161 -102 -194 3
-13 5 -26 5 -30 2 -15 49 -38 65 -32 14 5 114 128 139 170 4 7 -3 23 -14 38
-22 28 -15 34 16 13 11 -7 26 -12 33 -11 6 1 16 2 22 3 5 0 27 17 49 36 47 42
85 126 77 167 -5 27 6 38 19 18 4 -6 11 -7 17 -4 6 4 -2 17 -18 31 l-29 24 27
-5 c14 -3 32 -8 40 -11 18 -7 56 59 67 119 7 39 5 50 -11 71 -21 28 -62 33
-90 12z"/>
<path d="M1087 1295 c-136 -50 -167 -161 -73 -262 16 -18 33 -33 38 -33 4 0
51 -25 105 -57 127 -73 152 -83 247 -100 90 -16 129 -32 81 -34 l-30 -1 30
-13 c17 -8 59 -14 94 -15 35 0 61 -3 57 -7 -15 -16 -133 -2 -191 22 -33 13
-62 22 -64 19 -3 -2 7 -17 20 -32 50 -54 108 -141 115 -168 6 -28 6 -28 -9 -9
-9 11 -17 24 -17 29 0 11 -58 85 -90 114 -14 13 -44 33 -67 43 -23 11 -45 24
-48 30 -11 17 -168 8 -227 -12 -62 -22 -71 -23 -62 -8 13 22 81 42 163 48 l85
6 -43 29 c-36 23 -48 26 -66 18 -17 -8 -42 -6 -96 8 -119 30 -155 33 -193 15
-41 -20 -57 -52 -47 -97 12 -53 4 -80 -39 -123 -73 -74 -72 -103 16 -319 51
-125 78 -161 141 -191 48 -24 157 -29 192 -10 78 42 123 120 125 217 1 36 5
70 10 75 4 4 7 -37 4 -93 -3 -90 -7 -106 -31 -142 -15 -23 -27 -43 -27 -45 0
-3 42 -2 98 2 9 1 10 6 2 20 -5 11 -10 22 -10 26 0 11 95 -43 121 -69 33 -33
66 -45 137 -50 110 -7 196 33 249 117 15 23 62 146 106 272 l79 230 2 115 1
115 -37 66 c-20 36 -48 76 -62 90 -39 39 -145 89 -191 89 -22 0 -53 0 -69 0
-16 0 -66 21 -112 46 l-83 45 -92 -16 c-50 -8 -100 -20 -111 -26 -25 -14 -33
-6 -18 20 10 20 8 21 -32 20 -24 0 -60 -7 -81 -14z"/>
<path d="M158 1127 c-49 -12 -88 -58 -88 -102 0 -85 60 -146 218 -222 62 -30
115 -53 116 -51 2 1 8 17 13 33 10 32 26 32 29 0 0 -11 18 -33 39 -50 21 -16
63 -51 92 -77 33 -30 58 -45 68 -42 40 16 60 119 31 159 -12 18 -95 65 -138
78 -9 3 -19 19 -23 36 -4 21 -11 28 -21 24 -17 -6 -54 24 -54 44 0 7 -4 13 -9
13 -5 0 -15 16 -21 35 -30 91 -148 148 -252 122z"/>
<path d="M930 991 c0 -29 128 -78 181 -69 20 4 14 9 -36 32 -33 16 -64 29 -70
30 -5 1 -20 7 -32 14 -31 17 -43 15 -43 -7z"/>
</g>
</svg>
